<svg width="38" height="59" viewBox="0 0 38 59" fill="none" xmlns="http://www.w3.org/2000/svg">
<g clip-path="url(#clip0_58_223)">
<path d="M24.2955 21H13.7045C6.1357 21 0 27.6205 0 35.7873V39.2127C0 47.3795 6.1357 54 13.7045 54H24.2955C31.8643 54 38 47.3795 38 39.2127V35.7873C38 27.6205 31.8643 21 24.2955 21Z" fill="#222427"/>
<path d="M19 37C29.4934 37 38 28.7173 38 18.5C38 8.28273 29.4934 0 19 0C8.50659 0 0 8.28273 0 18.5C0 28.7173 8.50659 37 19 37Z" fill="#222427"/>
<path d="M31.5397 51.5317H25.2758C23.3379 51.5317 21.767 53.12 21.767 55.0792C21.767 57.0384 23.3379 58.6266 25.2758 58.6266H31.5397C33.4776 58.6266 35.0485 57.0384 35.0485 55.0792C35.0485 53.12 33.4776 51.5317 31.5397 51.5317Z" fill="#C85F00"/>
<path d="M12.5396 51.5317H6.64501C4.60515 51.5317 2.95152 53.2035 2.95152 55.2659C2.95152 57.3282 4.60515 59.0001 6.64501 59.0001H12.5396C14.5794 59.0001 16.2331 57.3282 16.2331 55.2659C16.2331 53.2035 14.5794 51.5317 12.5396 51.5317Z" fill="#C85F00"/>
<path d="M19 51C26.732 51 33 44.5081 33 36.5C33 28.4919 26.732 22 19 22C11.268 22 5 28.4919 5 36.5C5 44.5081 11.268 51 19 51Z" fill="white"/>
<path d="M15 28C20.5228 28 25 23.299 25 17.5C25 11.701 20.5228 7 15 7C9.47715 7 5 11.701 5 17.5C5 23.299 9.47715 28 15 28Z" fill="white"/>
<path d="M23 28C28.5228 28 33 23.299 33 17.5C33 11.701 28.5228 7 23 7C17.4772 7 13 11.701 13 17.5C13 23.299 17.4772 28 23 28Z" fill="white"/>
<path d="M17.6539 31.2793C18.2921 31.936 19.339 31.936 19.9773 31.2793L23.4426 27.7135C24.4546 26.6721 23.7249 24.913 22.2809 24.913H15.3502C13.9062 24.913 13.1765 26.6721 14.1885 27.7135L17.6539 31.2793Z" fill="#EAB805"/>
<path d="M11.8834 21.0316C13.004 21.0316 13.9125 20.1121 13.9125 18.9778C13.9125 17.8436 13.004 16.924 11.8834 16.924C10.7627 16.924 9.85424 17.8436 9.85424 18.9778C9.85424 20.1121 10.7627 21.0316 11.8834 21.0316Z" fill="#707887"/>
<path d="M26.1165 21.0316C27.2372 21.0316 28.1456 20.1121 28.1456 18.9778C28.1456 17.8436 27.2372 16.924 26.1165 16.924C24.9958 16.924 24.0874 17.8436 24.0874 18.9778C24.0874 20.1121 24.9958 21.0316 26.1165 21.0316Z" fill="#707887"/>
</g>
<defs>
<clipPath id="clip0_58_223">
<rect width="38" height="59" fill="white"/>
</clipPath>
</defs>
</svg>
