<svg width="607" height="494" viewBox="0 0 607 494" fill="none" xmlns="http://www.w3.org/2000/svg">
<path opacity="0.1" d="M470.884 45.5763C534.483 60.7684 573.213 141.524 584.629 180.003L606.862 473.614L345.583 493.399C376.605 433.571 382.008 346.723 369.296 306.441C356.585 266.159 302.868 189.579 240.076 141.156C203.55 112.988 133.711 76.9586 94.397 59.6057C70.506 50.2993 18.2753 30.0926 0.480145 23.7177C15.0107 3.31133 45.6275 -2.66844 71.0436 1.26219C96.4597 5.19281 190.035 36.5678 190.035 36.5678C211.696 41.9479 263.125 51.5678 295.55 47.0064C336.08 41.3046 391.386 26.5861 470.884 45.5763Z" fill="#707887"/>
</svg>
